<svg width="26" height="16" viewBox="0 0 26 16" fill="none" xmlns="http://www.w3.org/2000/svg">
<path fill-rule="evenodd" clip-rule="evenodd" d="M18.4811 4.11302C17.7313 2.90683 16.6122 1.97493 15.2902 1.45598C13.9683 0.937033 12.5141 0.858772 11.144 1.23284C9.77395 1.60691 8.56129 2.41333 7.68646 3.53208C6.81162 4.65084 6.32136 6.02215 6.28864 7.44198C6.25592 8.8618 6.68247 10.2542 7.50484 11.4121C8.3272 12.57 9.50143 13.4314 10.8528 13.8682C12.2041 14.305 13.6604 14.2938 15.0049 13.8363C16.3494 13.3788 17.5103 12.4995 18.3148 11.3291C18.4712 11.1016 18.7825 11.0439 19.01 11.2003C19.2376 11.3567 19.2953 11.668 19.1388 11.8956C18.2123 13.2434 16.8754 14.2561 15.327 14.783C13.7787 15.3099 12.1015 15.3228 10.5452 14.8197C8.98893 14.3167 7.63663 13.3246 6.68955 11.9912C5.84852 10.807 5.36696 9.40985 5.29604 7.96675H0.5C0.223858 7.96675 0 7.74289 0 7.46675C0 7.1906 0.223858 6.96675 0.5 6.96675H5.31283C5.43485 5.49408 5.9844 4.08532 6.89871 2.91609C7.90622 1.62766 9.30279 0.698956 10.8806 0.268155C12.4584 -0.162646 14.1332 -0.0725168 15.6557 0.525133C17.1781 1.12278 18.467 2.19601 19.3304 3.58512C19.4761 3.81965 19.4042 4.12795 19.1697 4.27372C18.9351 4.4195 18.6268 4.34755 18.4811 4.11302ZM12.8803 11.1825C14.7619 11.1825 16.3167 9.78337 16.5611 7.96875H25.2612C25.5373 7.96875 25.7612 7.74489 25.7612 7.46875C25.7612 7.19261 25.5373 6.96875 25.2612 6.96875H16.5613C16.3173 5.15359 14.7623 3.75391 12.8803 3.75391C10.829 3.75391 9.16602 5.41685 9.16602 7.46819C9.16602 9.51954 10.829 11.1825 12.8803 11.1825Z" fill="#333333"/>
</svg>
