<svg width="187" height="62" viewBox="0 0 187 62" fill="none" xmlns="http://www.w3.org/2000/svg">
<rect width="187" height="44" rx="8" fill="#101010"/>
<path fill-rule="evenodd" clip-rule="evenodd" d="M37.4281 18.675C36.7781 18.325 36.0531 18.15 35.2531 18.15C34.3365 18.15 33.5115 18.375 32.7781 18.825C32.0615 19.275 31.4615 19.85 30.9781 20.55C30.5115 19.85 29.9115 19.275 29.1781 18.825C28.4615 18.375 27.6531 18.15 26.7531 18.15C25.9531 18.15 25.2198 18.325 24.5531 18.675C23.8865 19.025 23.3115 19.4833 22.8281 20.05C22.3615 20.6167 21.9948 21.25 21.7281 21.95C21.4615 22.6333 21.3281 23.325 21.3281 24.025V31.325H23.6031V24.025C23.6031 23.6083 23.6781 23.1833 23.8281 22.75C23.9948 22.3167 24.2198 21.925 24.5031 21.575C24.7865 21.225 25.1198 20.9417 25.5031 20.725C25.8865 20.5083 26.3031 20.4 26.7531 20.4C27.2031 20.4 27.6198 20.5167 28.0031 20.75C28.3865 20.9667 28.7115 21.2583 28.9781 21.625C29.2615 21.975 29.4781 22.375 29.6281 22.825C29.7781 23.2583 29.8531 23.7 29.8531 24.15V31.325H32.1031V24.15V24.025C32.1031 23.6083 32.1781 23.1833 32.3281 22.75C32.4948 22.3167 32.7198 21.925 33.0031 21.575C33.2865 21.225 33.6198 20.9417 34.0031 20.725C34.3865 20.5083 34.8031 20.4 35.2531 20.4C35.7031 20.4 36.1198 20.5167 36.5031 20.75C36.8865 20.9667 37.2115 21.2583 37.4781 21.625C37.7615 21.975 37.9781 22.375 38.1281 22.825C38.2781 23.2583 38.3531 23.7 38.3531 24.15V31.325H40.6281V24.15C40.6281 23.4333 40.4948 22.7167 40.2281 22C39.9781 21.2833 39.6115 20.6417 39.1281 20.075C38.6615 19.4917 38.0948 19.025 37.4281 18.675ZM55.7283 31.325V18.15H53.4783V19.775C52.895 19.275 52.2367 18.8833 51.5033 18.6C50.77 18.3 49.9867 18.15 49.1533 18.15C48.2367 18.15 47.3783 18.325 46.5783 18.675C45.7783 19.0083 45.0783 19.475 44.4783 20.075C43.8783 20.675 43.4033 21.375 43.0533 22.175C42.72 22.975 42.5533 23.8333 42.5533 24.75C42.5533 25.65 42.72 26.5 43.0533 27.3C43.4033 28.1 43.8783 28.8 44.4783 29.4C45.0783 30 45.7783 30.475 46.5783 30.825C47.3783 31.1583 48.2367 31.325 49.1533 31.325C49.9867 31.325 50.77 31.1833 51.5033 30.9C52.2367 30.6 52.895 30.2 53.4783 29.7V31.325H55.7283ZM50.8283 28.75C50.3117 28.9667 49.7533 29.075 49.1533 29.075C48.5533 29.075 47.9867 28.9667 47.4533 28.75C46.9367 28.5167 46.4783 28.2083 46.0783 27.825C45.695 27.425 45.3867 26.9667 45.1533 26.45C44.9367 25.9167 44.8283 25.35 44.8283 24.75C44.8283 24.15 44.9367 23.5917 45.1533 23.075C45.3867 22.5417 45.695 22.0833 46.0783 21.7C46.4783 21.3 46.9367 20.9917 47.4533 20.775C47.9867 20.5417 48.5533 20.425 49.1533 20.425C49.7533 20.425 50.3117 20.5417 50.8283 20.775C51.3617 20.9917 51.82 21.3 52.2033 21.7C52.6033 22.0833 52.9117 22.5417 53.1283 23.075C53.3617 23.5917 53.4783 24.15 53.4783 24.75C53.4783 25.35 53.3617 25.9167 53.1283 26.45C52.9117 26.9667 52.6033 27.425 52.2033 27.825C51.82 28.2083 51.3617 28.5167 50.8283 28.75ZM71.4504 31.325V12H69.2004V19.775C68.6171 19.275 67.9587 18.8833 67.2254 18.6C66.4921 18.3 65.7087 18.15 64.8754 18.15C63.9754 18.15 63.1254 18.325 62.3254 18.675C61.5254 19.0083 60.8254 19.475 60.2254 20.075C59.6254 20.675 59.1504 21.375 58.8004 22.175C58.4671 22.975 58.3004 23.8333 58.3004 24.75C58.3004 25.65 58.4671 26.5 58.8004 27.3C59.1504 28.1 59.6254 28.8 60.2254 29.4C60.8254 30 61.5254 30.475 62.3254 30.825C63.1254 31.1583 63.9754 31.325 64.8754 31.325C65.7087 31.325 66.4921 31.1833 67.2254 30.9C67.9587 30.6 68.6171 30.2 69.2004 29.7V31.325H71.4504ZM66.5504 28.75C66.0337 28.9667 65.4754 29.075 64.8754 29.075C64.2754 29.075 63.7087 28.9667 63.1754 28.75C62.6587 28.5167 62.2004 28.2083 61.8004 27.825C61.4171 27.425 61.1087 26.9667 60.8754 26.45C60.6587 25.9167 60.5504 25.35 60.5504 24.75C60.5504 24.15 60.6587 23.5917 60.8754 23.075C61.1087 22.5417 61.4171 22.0833 61.8004 21.7C62.2004 21.3 62.6587 20.9917 63.1754 20.775C63.7087 20.5417 64.2754 20.425 64.8754 20.425C65.4754 20.425 66.0337 20.5417 66.5504 20.775C67.0837 20.9917 67.5421 21.3 67.9254 21.7C68.3254 22.0833 68.6337 22.5417 68.8504 23.075C69.0837 23.5917 69.2004 24.15 69.2004 24.75C69.2004 25.35 69.0837 25.9167 68.8504 26.45C68.6337 26.9667 68.3254 27.425 67.9254 27.825C67.5421 28.2083 67.0837 28.5167 66.5504 28.75ZM80.1998 24.3C79.7665 24.1167 79.3665 23.95 78.9998 23.8L78.4748 23.6C78.0748 23.4333 77.7248 23.3 77.4248 23.2C77.1415 23.0833 76.9081 22.9667 76.7248 22.85C76.5415 22.7167 76.4081 22.5667 76.3248 22.4C76.2415 22.2333 76.1998 22.0083 76.1998 21.725C76.1998 21.575 76.2165 21.425 76.2498 21.275C76.2831 21.125 76.3748 20.9833 76.5248 20.85C76.6748 20.7167 76.8915 20.6083 77.1748 20.525C77.4581 20.4417 77.8498 20.4 78.3498 20.4C78.8331 20.4 79.2081 20.425 79.4748 20.475C79.7581 20.525 79.9665 20.5917 80.0998 20.675C80.2498 20.7583 80.3415 20.8667 80.3748 21C80.4248 21.1333 80.4498 21.275 80.4498 21.425L82.6498 20.75C82.3665 19.0167 80.9331 18.15 78.3498 18.15C76.8831 18.15 75.7748 18.475 75.0248 19.125C74.2915 19.7583 73.9248 20.625 73.9248 21.725C73.9248 22.4083 74.0498 22.975 74.2998 23.425C74.5498 23.8583 74.8581 24.225 75.2248 24.525C75.5915 24.8083 75.9915 25.0333 76.4248 25.2C76.8581 25.3667 77.2581 25.525 77.6248 25.675L78.1498 25.9C78.5665 26.0667 78.9165 26.2083 79.1998 26.325C79.4998 26.425 79.7415 26.5417 79.9248 26.675C80.1081 26.7917 80.2415 26.9333 80.3248 27.1C80.4081 27.2667 80.4498 27.4917 80.4498 27.775C80.4498 27.925 80.4331 28.075 80.3998 28.225C80.3665 28.375 80.2748 28.5167 80.1248 28.65C79.9915 28.7667 79.7831 28.8667 79.4998 28.95C79.2165 29.0333 78.8248 29.075 78.3248 29.075C77.8415 29.075 77.4581 29.05 77.1748 29C76.8915 28.95 76.6748 28.8833 76.5248 28.8C76.3915 28.7 76.2998 28.5917 76.2498 28.475C76.2165 28.3417 76.1998 28.2 76.1998 28.05L73.9998 28.7C74.2665 30.45 75.7081 31.325 78.3248 31.325C79.7915 31.325 80.8915 31.0083 81.6248 30.375C82.3581 29.7417 82.7248 28.875 82.7248 27.775C82.7248 27.0917 82.5998 26.5333 82.3498 26.1C82.0998 25.65 81.7831 25.2833 81.3998 25C81.0331 24.7 80.6331 24.4667 80.1998 24.3ZM95.3053 30.275C96.3719 29.575 97.1719 28.6667 97.7053 27.55L95.5053 26.875C95.1219 27.5417 94.5969 28.075 93.9303 28.475C93.2803 28.875 92.5553 29.075 91.7553 29.075C91.1553 29.075 90.5886 28.9667 90.0553 28.75C89.5386 28.5167 89.0803 28.2083 88.6803 27.825C88.2969 27.425 87.9886 26.9667 87.7553 26.45C87.5386 25.9167 87.4303 25.35 87.4303 24.75C87.4303 24.15 87.5386 23.5917 87.7553 23.075C87.9886 22.5417 88.2969 22.0833 88.6803 21.7C89.0803 21.3 89.5386 20.9917 90.0553 20.775C90.5886 20.5417 91.1553 20.425 91.7553 20.425C92.5553 20.425 93.2803 20.625 93.9303 21.025C94.5969 21.425 95.1219 21.95 95.5053 22.6L97.7053 21.925C97.1719 20.8083 96.3719 19.9 95.3053 19.2C94.2553 18.5 93.0636 18.15 91.7303 18.15C90.8303 18.15 89.9803 18.325 89.1803 18.675C88.3803 19.0083 87.6803 19.475 87.0803 20.075C86.4803 20.675 86.0053 21.375 85.6553 22.175C85.3219 22.975 85.1553 23.8333 85.1553 24.75C85.1553 25.65 85.3219 26.5 85.6553 27.3C86.0053 28.1 86.4803 28.8 87.0803 29.4C87.6803 30 88.3803 30.475 89.1803 30.825C89.9803 31.1583 90.8303 31.325 91.7303 31.325C93.0636 31.325 94.2553 30.975 95.3053 30.275ZM100.244 18.15V31.325H102.494V18.15H100.244ZM102.144 16.9C102.36 16.6833 102.469 16.4167 102.469 16.1C102.469 15.8 102.36 15.5417 102.144 15.325C101.927 15.1083 101.669 15 101.369 15C101.069 15 100.81 15.1083 100.594 15.325C100.377 15.5417 100.269 15.8 100.269 16.1C100.269 16.4167 100.377 16.6833 100.594 16.9C100.81 17.1167 101.069 17.225 101.369 17.225C101.669 17.225 101.927 17.1167 102.144 16.9ZM114.929 30.425C115.946 29.8083 116.738 29 117.304 28L115.054 27.325C114.671 27.8583 114.171 28.2833 113.554 28.6C112.954 28.9167 112.296 29.075 111.579 29.075C110.629 29.075 109.779 28.8 109.029 28.25C108.279 27.6833 107.763 26.9667 107.479 26.1H114.629H115.679H118.029C118.113 25.6333 118.154 25.1833 118.154 24.75C118.154 23.8333 117.979 22.975 117.629 22.175C117.296 21.375 116.829 20.675 116.229 20.075C115.629 19.475 114.929 19.0083 114.129 18.675C113.329 18.325 112.479 18.15 111.579 18.15C110.663 18.15 109.804 18.325 109.004 18.675C108.204 19.0083 107.504 19.475 106.904 20.075C106.304 20.675 105.829 21.375 105.479 22.175C105.146 22.975 104.979 23.8333 104.979 24.75C104.979 25.65 105.146 26.5 105.479 27.3C105.829 28.1 106.304 28.8 106.904 29.4C107.504 30 108.204 30.475 109.004 30.825C109.804 31.1583 110.663 31.325 111.579 31.325C112.813 31.325 113.929 31.025 114.929 30.425ZM110.104 20.7C110.571 20.5167 111.063 20.425 111.579 20.425C112.096 20.425 112.588 20.5167 113.054 20.7C113.521 20.8667 113.938 21.1083 114.304 21.425C114.688 21.725 115.013 22.0833 115.279 22.5C115.546 22.9167 115.729 23.3667 115.829 23.85H107.354C107.454 23.3667 107.629 22.9167 107.879 22.5C108.146 22.0833 108.463 21.725 108.829 21.425C109.213 21.1083 109.638 20.8667 110.104 20.7ZM129.227 31.325H131.477V24.15C131.477 23.4333 131.344 22.7167 131.077 22C130.827 21.2833 130.469 20.6417 130.002 20.075C129.535 19.4917 128.969 19.025 128.302 18.675C127.652 18.325 126.927 18.15 126.127 18.15C125.327 18.15 124.594 18.325 123.927 18.675C123.26 19.025 122.685 19.4833 122.202 20.05C121.735 20.6167 121.369 21.25 121.102 21.95C120.852 22.6333 120.727 23.325 120.727 24.025V31.325H122.977V24.025C122.977 23.6083 123.052 23.1833 123.202 22.75C123.369 22.3167 123.594 21.925 123.877 21.575C124.16 21.225 124.494 20.9417 124.877 20.725C125.26 20.5083 125.677 20.4 126.127 20.4C126.577 20.4 126.994 20.5167 127.377 20.75C127.76 20.9667 128.085 21.2583 128.352 21.625C128.635 21.975 128.852 22.375 129.002 22.825C129.152 23.2583 129.227 23.7 129.227 24.15V31.325ZM139.884 18.15V15.9H138.059V12H135.809V15.9H133.984V18.15H135.809V31.325H138.059V18.15H139.884ZM142.431 18.15V31.325H144.681V18.15H142.431ZM144.331 16.9C144.548 16.6833 144.656 16.4167 144.656 16.1C144.656 15.8 144.548 15.5417 144.331 15.325C144.115 15.1083 143.856 15 143.556 15C143.256 15 142.998 15.1083 142.781 15.325C142.565 15.5417 142.456 15.8 142.456 16.1C142.456 16.4167 142.565 16.6833 142.781 16.9C142.998 17.1167 143.256 17.225 143.556 17.225C143.856 17.225 144.115 17.1167 144.331 16.9ZM153.442 24.3C153.009 24.1167 152.609 23.95 152.242 23.8L151.717 23.6C151.317 23.4333 150.967 23.3 150.667 23.2C150.384 23.0833 150.15 22.9667 149.967 22.85C149.784 22.7167 149.65 22.5667 149.567 22.4C149.484 22.2333 149.442 22.0083 149.442 21.725C149.442 21.575 149.459 21.425 149.492 21.275C149.525 21.125 149.617 20.9833 149.767 20.85C149.917 20.7167 150.134 20.6083 150.417 20.525C150.7 20.4417 151.092 20.4 151.592 20.4C152.075 20.4 152.45 20.425 152.717 20.475C153 20.525 153.209 20.5917 153.342 20.675C153.492 20.7583 153.584 20.8667 153.617 21C153.667 21.1333 153.692 21.275 153.692 21.425L155.892 20.75C155.609 19.0167 154.175 18.15 151.592 18.15C150.125 18.15 149.017 18.475 148.267 19.125C147.534 19.7583 147.167 20.625 147.167 21.725C147.167 22.4083 147.292 22.975 147.542 23.425C147.792 23.8583 148.1 24.225 148.467 24.525C148.834 24.8083 149.234 25.0333 149.667 25.2C150.1 25.3667 150.5 25.525 150.867 25.675L151.392 25.9C151.809 26.0667 152.159 26.2083 152.442 26.325C152.742 26.425 152.984 26.5417 153.167 26.675C153.35 26.7917 153.484 26.9333 153.567 27.1C153.65 27.2667 153.692 27.4917 153.692 27.775C153.692 27.925 153.675 28.075 153.642 28.225C153.609 28.375 153.517 28.5167 153.367 28.65C153.234 28.7667 153.025 28.8667 152.742 28.95C152.459 29.0333 152.067 29.075 151.567 29.075C151.084 29.075 150.7 29.05 150.417 29C150.134 28.95 149.917 28.8833 149.767 28.8C149.634 28.7 149.542 28.5917 149.492 28.475C149.459 28.3417 149.442 28.2 149.442 28.05L147.242 28.7C147.509 30.45 148.95 31.325 151.567 31.325C153.034 31.325 154.134 31.0083 154.867 30.375C155.6 29.7417 155.967 28.875 155.967 27.775C155.967 27.0917 155.842 26.5333 155.592 26.1C155.342 25.65 155.025 25.2833 154.642 25C154.275 24.7 153.875 24.4667 153.442 24.3ZM164.322 18.15V15.9H162.497V12H160.247V15.9H158.422V18.15H160.247V31.325H162.497V18.15H164.322ZM40.6522 14.325H21.3424V16.325H40.6522V14.325Z" fill="#D9D9D9"/>
<rect x="143" y="47" width="44" height="14" rx="2" fill="#101010"/>
<path d="M152.92 48.88V51.28H155.92C156.576 51.28 157.06 51.436 157.372 51.748C157.684 52.06 157.84 52.544 157.84 53.2V56.08C157.84 56.736 157.684 57.22 157.372 57.532C157.06 57.844 156.576 58 155.92 58H153.76C153.104 58 152.62 57.844 152.308 57.532C151.996 57.22 151.84 56.736 151.84 56.08V48.88H152.92ZM153.76 56.992H155.92C156.24 56.992 156.46 56.924 156.58 56.788C156.7 56.652 156.76 56.416 156.76 56.08V53.2C156.76 52.864 156.7 52.628 156.58 52.492C156.46 52.356 156.24 52.288 155.92 52.288H152.92V56.08C152.92 56.416 152.98 56.652 153.1 56.788C153.22 56.924 153.44 56.992 153.76 56.992ZM163.957 51.28C164.621 51.28 165.105 51.436 165.409 51.748C165.721 52.06 165.877 52.544 165.877 53.2V55.144H160.957V56.08C160.957 56.416 161.017 56.652 161.137 56.788C161.257 56.924 161.477 56.992 161.797 56.992H163.957C164.277 56.992 164.497 56.924 164.617 56.788C164.737 56.652 164.797 56.416 164.797 56.08V55.72H165.877V56.08C165.877 56.736 165.721 57.22 165.409 57.532C165.105 57.844 164.621 58 163.957 58H161.797C161.133 58 160.645 57.844 160.333 57.532C160.029 57.22 159.877 56.736 159.877 56.08V53.2C159.877 52.544 160.029 52.06 160.333 51.748C160.645 51.436 161.133 51.28 161.797 51.28H163.957ZM164.797 54.136V53.2C164.797 52.864 164.737 52.628 164.617 52.492C164.497 52.356 164.277 52.288 163.957 52.288H161.797C161.477 52.288 161.257 52.356 161.137 52.492C161.017 52.628 160.957 52.864 160.957 53.2V54.136H164.797ZM169.656 56.992H171.576V58H169.656C169.056 58 168.624 57.872 168.36 57.616C168.104 57.352 167.976 56.92 167.976 56.32V50.08H169.056V51.28H171.336V52.288H169.056V56.32C169.056 56.568 169.096 56.744 169.176 56.848C169.264 56.944 169.424 56.992 169.656 56.992ZM177.396 51.28C178.052 51.28 178.536 51.436 178.848 51.748C179.16 52.06 179.316 52.544 179.316 53.2V56.08C179.316 56.736 179.16 57.22 178.848 57.532C178.536 57.844 178.052 58 177.396 58H175.236C174.58 58 174.096 57.844 173.784 57.532C173.472 57.22 173.316 56.736 173.316 56.08C173.316 55.792 173.352 55.552 173.424 55.36C173.504 55.168 173.644 55.012 173.844 54.892C174.044 54.764 174.232 54.672 174.408 54.616C174.584 54.56 174.86 54.484 175.236 54.388L178.236 53.644V53.2C178.236 52.864 178.176 52.628 178.056 52.492C177.936 52.356 177.716 52.288 177.396 52.288H175.236C174.916 52.288 174.696 52.356 174.576 52.492C174.456 52.628 174.396 52.864 174.396 53.2V53.56H173.316V53.2C173.316 52.544 173.472 52.06 173.784 51.748C174.096 51.436 174.58 51.28 175.236 51.28H177.396ZM178.236 56.08V54.676L175.236 55.432C174.884 55.52 174.656 55.604 174.552 55.684C174.448 55.764 174.396 55.896 174.396 56.08C174.396 56.416 174.456 56.652 174.576 56.788C174.696 56.924 174.916 56.992 175.236 56.992H177.396C177.716 56.992 177.936 56.924 178.056 56.788C178.176 56.652 178.236 56.416 178.236 56.08Z" fill="white"/>
</svg>
